<svg xmlns="http://www.w3.org/2000/svg" viewBox="0 0 40 40" width="40" height="40">
  <rect width="40" height="40" rx="8" fill="#0b0e11"/>
  <path
    d="M8 34 V18 C8 11 13 6 20 6 C27 6 32 11 32 18 V34 Z"
    stroke="#fcd535"
    stroke-width="1.8"
    stroke-linejoin="round"
    fill="rgba(252,213,53,0.06)"
  />
  <path
    d="M20 14 C23 18 25 20.5 25 24 C25 27.3 22.8 29.5 20 29.5 C17.2 29.5 15 27.3 15 24 C15 21.5 16.2 19.8 17.5 18 C17.9 20 18.8 21 20 21.5 C19.2 19 19.2 16.5 20 14 Z"
    fill="#fcd535"
  />
  <line x1="6" y1="34" x2="34" y2="34" stroke="#fcd535" stroke-width="1.8" stroke-linecap="round"/>
</svg>
